<svg xmlns="http://www.w3.org/2000/svg" viewBox="0 0 512 512" role="img" aria-labelledby="title desc">
  <title id="title">anndata-oom sticker</title>
  <desc id="desc">OmicVerse repository hex sticker for anndata-oom.</desc>
  <defs>
    <linearGradient id="bg" x1="112" y1="90" x2="398" y2="430" gradientUnits="userSpaceOnUse">
      <stop offset="0" stop-color="#050706"/>
      <stop offset=".58" stop-color="#020403"/>
      <stop offset="1" stop-color="#000000"/>
    </linearGradient>
  </defs>
  <polygon points="256,34 450,146 450,368 256,480 62,368 62,146" fill="#000000" opacity=".34"/>
  <polygon points="256,22 458,139 458,373 256,490 54,373 54,139" fill="url(#bg)" stroke="#0B0F0A" stroke-width="19" stroke-linejoin="round"/>
  <polygon points="256,22 458,139 458,373 256,490 54,373 54,139" fill="none" stroke="#E8FFE0" stroke-width="12" stroke-linejoin="round"/>
  <g opacity=".22" stroke="#37C96B" stroke-width="2.2">
    <path d="M112 166h288M100 222h312M100 278h312M112 334h288"/>
    <path d="M152 126v236M204 104v274M256 96v286M308 104v274M360 126v236"/>
  </g>
  
  <g id="motif">
    <rect x="136" y="147" width="158" height="138" fill="#FFFFFF" opacity=".22" stroke="#FFFFFF" stroke-width="6"/>
    <rect x="164" y="123" width="158" height="138" fill="#34C759" opacity=".25" stroke="#FFFFFF" stroke-width="6"/>
    <rect x="193" y="171" width="158" height="138" fill="#00A6D6" opacity=".28" stroke="#FFFFFF" stroke-width="6"/>
    <ellipse cx="272" cy="335" rx="92" ry="24" fill="#FFD43B" opacity=".66" stroke="#FFFFFF" stroke-width="5"/>
    <path d="M180 203h142M180 233h142M180 263h142" stroke="#FFFFFF" stroke-width="5" opacity=".7"/>
  </g>
  <path id="label" d="M309.65,382.58 Q308.18,383.42 307.72,384.35 Q307.27,385.27 307.83,386.25 Q308.35,387.14 309.23,387.30 Q310.13,387.46 311.19,386.84 Q312.51,386.08 312.87,384.61 Q313.22,383.13 312.40,381.70 L312.09,381.17 L309.65,382.58 Z M315.80,376.67 L320.63,385.04 L315.90,387.77 L314.64,385.60 Q314.47,387.48 313.64,388.78 Q312.82,390.06 311.13,391.04 Q308.84,392.36 306.65,391.85 Q304.46,391.34 303.24,389.21 Q301.74,386.63 302.82,384.40 Q303.91,382.17 307.71,379.97 L310.47,378.37 L310.26,378.01 Q309.62,376.89 308.44,376.89 Q307.26,376.87 305.40,377.95 Q303.90,378.82 302.77,379.87 Q301.65,380.92 300.88,382.17 L298.81,378.59 Q300.11,377.35 301.52,376.28 Q302.93,375.22 304.45,374.34 Q308.43,372.05 311.09,372.59 Q313.76,373.14 315.80,376.67 Z M334.60,365.06 L339.76,374.00 L335.04,376.73 L334.20,375.27 L331.09,369.88 Q329.99,367.98 329.49,367.31 Q328.99,366.64 328.58,366.42 Q328.04,366.12 327.42,366.14 Q326.80,366.15 326.20,366.50 Q324.73,367.35 324.55,368.97 Q324.36,370.59 325.52,372.59 L329.69,379.81 L325.00,382.52 L316.52,367.84 L321.21,365.13 L322.45,367.28 Q322.77,365.38 323.61,364.09 Q324.46,362.79 325.90,361.96 Q328.44,360.49 330.66,361.29 Q332.88,362.08 334.60,365.06 Z M353.71,354.03 L358.87,362.97 L354.15,365.69 L353.31,364.24 L350.20,358.85 Q349.10,356.95 348.60,356.28 Q348.10,355.60 347.70,355.38 Q347.15,355.08 346.53,355.10 Q345.91,355.12 345.31,355.47 Q343.84,356.31 343.66,357.93 Q343.47,359.55 344.63,361.56 L348.80,368.78 L344.11,371.49 L335.64,356.81 L340.33,354.10 L341.57,356.25 Q341.89,354.35 342.73,353.05 Q343.57,351.75 345.01,350.92 Q347.55,349.45 349.77,350.25 Q351.99,351.05 353.71,354.03 Z M365.98,342.15 L361.43,334.29 L366.15,331.56 L377.93,351.96 L373.21,354.69 L371.99,352.56 Q371.77,354.42 370.94,355.70 Q370.13,356.98 368.60,357.86 Q365.88,359.43 362.89,358.28 Q359.90,357.12 357.94,353.73 Q355.99,350.34 356.48,347.17 Q356.98,344.01 359.70,342.44 Q361.21,341.57 362.74,341.50 Q364.27,341.43 365.98,342.15 Z M368.37,353.44 Q369.88,352.57 370.04,351.02 Q370.19,349.46 368.98,347.36 Q367.77,345.26 366.34,344.62 Q364.91,343.97 363.40,344.85 Q361.91,345.71 361.75,347.27 Q361.60,348.83 362.81,350.92 Q364.02,353.02 365.45,353.67 Q366.87,354.31 368.37,353.44 Z M385.20,338.95 Q383.74,339.80 383.28,340.73 Q382.83,341.65 383.39,342.62 Q383.91,343.51 384.79,343.68 Q385.68,343.83 386.75,343.22 Q388.07,342.46 388.43,340.99 Q388.78,339.51 387.96,338.08 L387.65,337.54 L385.20,338.95 Z M391.36,333.04 L396.19,341.42 L391.46,344.15 L390.20,341.97 Q390.03,343.86 389.20,345.15 Q388.38,346.44 386.69,347.42 Q384.40,348.73 382.21,348.23 Q380.02,347.71 378.80,345.59 Q377.30,343.01 378.38,340.78 Q379.46,338.54 383.26,336.35 L386.03,334.75 L385.82,334.38 Q385.18,333.27 384.00,333.26 Q382.82,333.25 380.96,334.32 Q379.45,335.19 378.33,336.25 Q377.21,337.30 376.44,338.54 L374.37,334.97 Q375.67,333.72 377.08,332.66 Q378.49,331.59 380.01,330.71 Q383.98,328.42 386.65,328.97 Q389.32,329.51 391.36,333.04 Z M394.80,317.09 L397.20,321.26 L402.04,318.46 L403.98,321.82 L399.14,324.61 L402.74,330.84 Q403.33,331.86 403.94,331.99 Q404.56,332.12 405.76,331.42 L408.18,330.02 L410.11,333.38 L406.09,335.71 Q403.31,337.31 401.48,336.82 Q399.65,336.33 398.05,333.55 L394.45,327.32 L392.11,328.67 L390.18,325.32 L392.51,323.97 L390.11,319.80 L394.80,317.09 Z M416.15,321.08 Q414.69,321.93 414.23,322.86 Q413.78,323.78 414.34,324.75 Q414.86,325.64 415.74,325.81 Q416.63,325.96 417.70,325.35 Q419.02,324.59 419.38,323.12 Q419.73,321.64 418.91,320.21 L418.60,319.67 L416.15,321.08 Z M422.31,315.17 L427.14,323.55 L422.41,326.28 L421.15,324.10 Q420.98,325.99 420.15,327.28 Q419.33,328.57 417.63,329.55 Q415.35,330.87 413.16,330.36 Q410.97,329.84 409.75,327.72 Q408.25,325.14 409.33,322.91 Q410.41,320.67 414.21,318.48 L416.98,316.88 L416.77,316.52 Q416.13,315.40 414.95,315.39 Q413.77,315.38 411.91,316.45 Q410.40,317.32 409.28,318.38 Q408.16,319.43 407.39,320.67 L405.32,317.10 Q406.62,315.86 408.03,314.79 Q409.44,313.72 410.96,312.85 Q414.93,310.55 417.60,311.10 Q420.27,311.64 422.31,315.17 Z" fill="#FFFFFF"/>
</svg>
